<?xml version="1.0" encoding="UTF-8"?>
<svg xmlns="http://www.w3.org/2000/svg" width="250" height="350" viewBox="0 0 250 350" role="img" aria-labelledby="title desc">
  <title id="title">5 of diamonds</title>
  <desc id="desc">A matched Texas cartoon corgi playing card with standard diamonds suit styling, cowboy hat, bandana, and lone star details.</desc>
  <rect x="7" y="7" width="236" height="336" rx="18" fill="#ffffff" stroke="#17211f" stroke-width="4"/>
  <rect x="15" y="15" width="220" height="320" rx="13" fill="none" stroke="#b42335" stroke-width="1.5" opacity=".22"/>
  <text x="125" y="30" text-anchor="middle" font-family="Inter, Arial, sans-serif" font-size="10" font-weight="900" fill="#b42335" opacity=".58">TEXAS CORGI</text>
  <text x="125" y="322" text-anchor="middle" font-family="Inter, Arial, sans-serif" font-size="13" font-weight="900" fill="#b42335" opacity=".82">LONE STAR ♦</text>
  
    <g >
      <text x="28" y="38" text-anchor="middle" font-family="Inter, Arial, sans-serif" font-size="30" font-weight="900" fill="#b42335">5</text>
      <text x="28" y="66" text-anchor="middle" dominant-baseline="middle" font-family="Georgia, serif" font-size="27" font-weight="900" fill="#b42335" opacity="1">♦</text>
    </g>
  
    <g transform="rotate(180 125 175)">
      <text x="28" y="38" text-anchor="middle" font-family="Inter, Arial, sans-serif" font-size="30" font-weight="900" fill="#b42335">5</text>
      <text x="28" y="66" text-anchor="middle" dominant-baseline="middle" font-family="Georgia, serif" font-size="27" font-weight="900" fill="#b42335" opacity="1">♦</text>
    </g>
  <g opacity=".5">
    <g transform="translate(125 177) scale(0.82)">
      <path d="M -74 -56 q 74 -30 148 0 q -24 19 -74 19 t -74 -19z" fill="#9a682f" stroke="#17211f" stroke-width="4" stroke-linejoin="round"/>
      <path d="M -34 -60 q 34 -46 68 0 l -8 25 h -52z" fill="#c78b3f" stroke="#17211f" stroke-width="4" stroke-linejoin="round"/>
      <path d="M -58 -54 q 58 18 116 0" fill="none" stroke="#f4c95d" stroke-width="5" stroke-linecap="round"/>
      <polygon points="5.817072295949927e-16,-72.5 2.3452631566469675,-66.22797780755604 9.035036904803958,-65.935661446562 3.7947155000176624,-61.76702219244396 5.583959896778495,-55.314338553438 2.4431703642989695e-16,-59.01 -5.583959896778493,-55.314338553438 -3.7947155000176624,-61.76702219244396 -9.03503690480396,-65.935661446562 -2.345263156646968,-66.22797780755604" fill="#fff6e8" stroke="#17211f" stroke-width="1.4615384615384615" stroke-linejoin="round"/>
      <path d="M -46 -22 L -26 -64 L -10 -30 Z" fill="#d89038" stroke="#17211f" stroke-width="3" stroke-linejoin="round"/>
      <path d="M 46 -22 L 26 -64 L 10 -30 Z" fill="#d89038" stroke="#17211f" stroke-width="3" stroke-linejoin="round"/>
      <path d="M -36 -22 q 0 -42 36 -42 t 36 42 q 8 14 2 36 q -7 33 -38 36 q -31 -3 -38 -36 q -6 -22 2 -36z" fill="#e3a146" stroke="#17211f" stroke-width="3"/>
      <path d="M -22 -19 q 22 10 44 0 q -2 43 -22 52 q -20 -9 -22 -52z" fill="#fff6e8"/>
      <ellipse cx="-17" cy="-17" rx="5" ry="7" fill="#17211f"/>
      <ellipse cx="17" cy="-17" rx="5" ry="7" fill="#17211f"/>
      <path d="M -7 4 q 7 -7 14 0 q -4 8 -14 0z" fill="#17211f"/>
      <path d="M 0 12 q -10 13 -22 5" fill="none" stroke="#17211f" stroke-width="3" stroke-linecap="round"/>
      <path d="M 0 12 q 10 13 22 5" fill="none" stroke="#17211f" stroke-width="3" stroke-linecap="round"/>
      
      <circle cx="-29" cy="2" r="6" fill="#f3b283" opacity=".72"/>
      <circle cx="29" cy="2" r="6" fill="#f3b283" opacity=".72"/>
      <path d="M -34 43 q 34 18 68 0 l -9 33 q -25 15 -50 0z" fill="#b42335" stroke="#17211f" stroke-width="3" stroke-linejoin="round"/>
      <path d="M -8 53 h16 l -8 12z" fill="#fff6e8" stroke="#17211f" stroke-width="2" stroke-linejoin="round"/>
    </g></g>
       <path d="M 68 265 q 57 25 114 0" fill="none" stroke="#b42335" stroke-width="10" stroke-linecap="round" opacity=".65"/>
       <polygon points="125,257.5 127.34526315664696,263.77202219244396 134.03503690480395,264.064338553438 128.79471550001767,268.23297780755604 130.58395989677848,274.685661446562 125,270.99 119.4160401032215,274.685661446562 121.20528449998234,268.23297780755604 115.96496309519604,264.064338553438 122.65473684335304,263.77202219244396" fill="#f4c95d" stroke="#17211f" stroke-width="1.4615384615384615" stroke-linejoin="round"/>
  <text x="78" y="88" text-anchor="middle" dominant-baseline="middle" font-family="Georgia, serif" font-size="34" font-weight="900" fill="#b42335" opacity="1">♦</text>
<text x="172" y="88" text-anchor="middle" dominant-baseline="middle" font-family="Georgia, serif" font-size="34" font-weight="900" fill="#b42335" opacity="1">♦</text>
<text x="125" y="175" text-anchor="middle" dominant-baseline="middle" font-family="Georgia, serif" font-size="34" font-weight="900" fill="#b42335" opacity="1">♦</text>
<text x="78" y="262" text-anchor="middle" dominant-baseline="middle" font-family="Georgia, serif" font-size="34" font-weight="900" fill="#b42335" opacity="1">♦</text>
<text x="172" y="262" text-anchor="middle" dominant-baseline="middle" font-family="Georgia, serif" font-size="34" font-weight="900" fill="#b42335" opacity="1">♦</text>
</svg>
