<?xml version="1.0" encoding="UTF-8"?>
<svg xmlns="http://www.w3.org/2000/svg" width="250" height="350" viewBox="0 0 250 350" role="img" aria-labelledby="title desc">
  <title id="title">8 of diamonds</title>
  <desc id="desc">A matched Texas cartoon corgi playing card with standard diamonds suit styling, cowboy hat, bandana, and lone star details.</desc>
  <rect x="7" y="7" width="236" height="336" rx="18" fill="#ffffff" stroke="#17211f" stroke-width="4"/>
  <rect x="15" y="15" width="220" height="320" rx="13" fill="none" stroke="#b42335" stroke-width="1.5" opacity=".22"/>
  <text x="125" y="30" text-anchor="middle" font-family="Inter, Arial, sans-serif" font-size="10" font-weight="900" fill="#b42335" opacity=".58">TEXAS CORGI</text>
  
    <g >
      <text x="28" y="38" text-anchor="middle" font-family="Inter, Arial, sans-serif" font-size="30" font-weight="900" fill="#b42335">8</text>
      <text x="28" y="66" text-anchor="middle" dominant-baseline="middle" font-family="Georgia, serif" font-size="27" font-weight="900" fill="#b42335" opacity="1">♦</text>
    </g>
  
    <g transform="rotate(180 125 175)">
      <text x="28" y="38" text-anchor="middle" font-family="Inter, Arial, sans-serif" font-size="30" font-weight="900" fill="#b42335">8</text>
      <text x="28" y="66" text-anchor="middle" dominant-baseline="middle" font-family="Georgia, serif" font-size="27" font-weight="900" fill="#b42335" opacity="1">♦</text>
    </g>
  <g opacity=".12">
    <g transform="translate(125 175) scale(0.92)">
      <path d="M -54 -59 q 54 -22 108 0 q -20 15 -54 15 t -54 -15z" fill="#8b5a2b" stroke="#17211f" stroke-width="3" stroke-linejoin="round"/>
      <path d="M -28 -61 q 28 -32 56 0 l -7 20 h -42z" fill="#b97835" stroke="#17211f" stroke-width="3" stroke-linejoin="round"/>
      <polygon points="4.286263797015736e-16,-65 1.728088641739871,-60.37850996346235 6.657395614066075,-60.16311896062463 2.7961061579077513,-57.09149003653766 4.114496766047312,-52.33688103937537 1.8002307947466092e-16,-55.06 -4.114496766047311,-52.33688103937537 -2.7961061579077513,-57.09149003653766 -6.6573956140660755,-60.16311896062463 -1.7280886417398713,-60.37850996346234" fill="#fff6e8" stroke="#17211f" stroke-width="1.2" stroke-linejoin="round"/>
      <path d="M -46 -22 L -26 -64 L -10 -30 Z" fill="#d89038" stroke="#17211f" stroke-width="3" stroke-linejoin="round"/>
      <path d="M 46 -22 L 26 -64 L 10 -30 Z" fill="#d89038" stroke="#17211f" stroke-width="3" stroke-linejoin="round"/>
      <path d="M -36 -22 q 0 -42 36 -42 t 36 42 q 8 14 2 36 q -7 33 -38 36 q -31 -3 -38 -36 q -6 -22 2 -36z" fill="#e3a146" stroke="#17211f" stroke-width="3"/>
      <path d="M -22 -19 q 22 10 44 0 q -2 43 -22 52 q -20 -9 -22 -52z" fill="#fff6e8"/>
      <ellipse cx="-17" cy="-17" rx="5" ry="7" fill="#17211f"/>
      <ellipse cx="17" cy="-17" rx="5" ry="7" fill="#17211f"/>
      <path d="M -7 4 q 7 -7 14 0 q -4 8 -14 0z" fill="#17211f"/>
      <path d="M 0 12 q -10 13 -22 5" fill="none" stroke="#17211f" stroke-width="3" stroke-linecap="round"/>
      <path d="M 0 12 q 10 13 22 5" fill="none" stroke="#17211f" stroke-width="3" stroke-linecap="round"/>
      <path d="M 117.64 203.52 q 7.36 12.88 14.72 0" fill="#e86f7a" stroke="#17211f" stroke-width="1.84" stroke-linecap="round"/>
      <circle cx="-29" cy="2" r="6" fill="#f3b283" opacity=".72"/>
      <circle cx="29" cy="2" r="6" fill="#f3b283" opacity=".72"/>
    </g></g>
  <text x="78" y="72" text-anchor="middle" dominant-baseline="middle" font-family="Georgia, serif" font-size="34" font-weight="900" fill="#b42335" opacity="1">♦</text>
<text x="172" y="72" text-anchor="middle" dominant-baseline="middle" font-family="Georgia, serif" font-size="34" font-weight="900" fill="#b42335" opacity="0.88">♦</text>
<text x="125" y="118" text-anchor="middle" dominant-baseline="middle" font-family="Georgia, serif" font-size="34" font-weight="900" fill="#b42335" opacity="1">♦</text>
<text x="78" y="160" text-anchor="middle" dominant-baseline="middle" font-family="Georgia, serif" font-size="34" font-weight="900" fill="#b42335" opacity="0.88">♦</text>
<text x="172" y="160" text-anchor="middle" dominant-baseline="middle" font-family="Georgia, serif" font-size="34" font-weight="900" fill="#b42335" opacity="1">♦</text>
<text x="125" y="232" text-anchor="middle" dominant-baseline="middle" font-family="Georgia, serif" font-size="34" font-weight="900" fill="#b42335" opacity="0.88">♦</text>
<text x="78" y="278" text-anchor="middle" dominant-baseline="middle" font-family="Georgia, serif" font-size="34" font-weight="900" fill="#b42335" opacity="1">♦</text>
<text x="172" y="278" text-anchor="middle" dominant-baseline="middle" font-family="Georgia, serif" font-size="34" font-weight="900" fill="#b42335" opacity="0.88">♦</text>
</svg>
