<?xml version="1.0" encoding="UTF-8"?>
<svg xmlns="http://www.w3.org/2000/svg" width="250" height="350" viewBox="0 0 250 350" role="img" aria-labelledby="title desc">
  <title id="title">Texas corgi card back</title>
  <desc id="desc">A matched card back for the Texas cartoon corgi blackjack deck.</desc>
  <rect x="7" y="7" width="236" height="336" rx="18" fill="#0f766e" stroke="#17211f" stroke-width="4"/>
  <rect x="22" y="22" width="206" height="306" rx="12" fill="none" stroke="#fff6e8" stroke-width="5"/>
  <pattern id="paws" width="42" height="42" patternUnits="userSpaceOnUse">
    <circle cx="21" cy="17" r="5" fill="#fff6e8" opacity=".26"/>
    <circle cx="12" cy="25" r="4" fill="#fff6e8" opacity=".26"/>
    <circle cx="30" cy="25" r="4" fill="#fff6e8" opacity=".26"/>
    <ellipse cx="21" cy="30" rx="8" ry="6" fill="#fff6e8" opacity=".26"/>
  </pattern>
  <rect x="29" y="29" width="192" height="292" rx="9" fill="url(#paws)"/>
  <circle cx="125" cy="175" r="77" fill="#fff6e8" stroke="#17211f" stroke-width="5"/>
  
    <g transform="translate(125 165) scale(1.1)">
      <path d="M -54 -59 q 54 -22 108 0 q -20 15 -54 15 t -54 -15z" fill="#8b5a2b" stroke="#17211f" stroke-width="3" stroke-linejoin="round"/>
      <path d="M -28 -61 q 28 -32 56 0 l -7 20 h -42z" fill="#b97835" stroke="#17211f" stroke-width="3" stroke-linejoin="round"/>
      <polygon points="4.286263797015736e-16,-65 1.728088641739871,-60.37850996346235 6.657395614066075,-60.16311896062463 2.7961061579077513,-57.09149003653766 4.114496766047312,-52.33688103937537 1.8002307947466092e-16,-55.06 -4.114496766047311,-52.33688103937537 -2.7961061579077513,-57.09149003653766 -6.6573956140660755,-60.16311896062463 -1.7280886417398713,-60.37850996346234" fill="#fff6e8" stroke="#17211f" stroke-width="1.2" stroke-linejoin="round"/>
      <path d="M -46 -22 L -26 -64 L -10 -30 Z" fill="#d89038" stroke="#17211f" stroke-width="3" stroke-linejoin="round"/>
      <path d="M 46 -22 L 26 -64 L 10 -30 Z" fill="#d89038" stroke="#17211f" stroke-width="3" stroke-linejoin="round"/>
      <path d="M -36 -22 q 0 -42 36 -42 t 36 42 q 8 14 2 36 q -7 33 -38 36 q -31 -3 -38 -36 q -6 -22 2 -36z" fill="#e3a146" stroke="#17211f" stroke-width="3"/>
      <path d="M -22 -19 q 22 10 44 0 q -2 43 -22 52 q -20 -9 -22 -52z" fill="#fff6e8"/>
      <ellipse cx="-17" cy="-17" rx="5" ry="7" fill="#17211f"/>
      <ellipse cx="17" cy="-17" rx="5" ry="7" fill="#17211f"/>
      <path d="M -7 4 q 7 -7 14 0 q -4 8 -14 0z" fill="#17211f"/>
      <path d="M 0 12 q -10 13 -22 5" fill="none" stroke="#17211f" stroke-width="3" stroke-linecap="round"/>
      <path d="M 0 12 q 10 13 22 5" fill="none" stroke="#17211f" stroke-width="3" stroke-linecap="round"/>
      <path d="M 116.2 199.1 q 8.8 15.400000000000002 17.6 0" fill="#e86f7a" stroke="#17211f" stroke-width="2.2" stroke-linecap="round"/>
      <circle cx="-29" cy="2" r="6" fill="#f3b283" opacity=".72"/>
      <circle cx="29" cy="2" r="6" fill="#f3b283" opacity=".72"/>
    </g>
  <text x="125" y="275" text-anchor="middle" font-family="Inter, Arial, sans-serif" font-size="17" font-weight="900" fill="#17211f">TEXAS CORGI</text>
  <text x="125" y="296" text-anchor="middle" font-family="Inter, Arial, sans-serif" font-size="13" font-weight="900" fill="#0f766e">BLACKJACK</text>
</svg>
