<?xml version="1.0" encoding="UTF-8"?>
<svg xmlns="http://www.w3.org/2000/svg" width="250" height="350" viewBox="0 0 250 350" role="img" aria-labelledby="title desc">
  <title id="title">Q of diamonds</title>
  <desc id="desc">A matched cartoon corgi playing card with standard diamonds suit styling.</desc>
  <rect x="7" y="7" width="236" height="336" rx="18" fill="#ffffff" stroke="#17211f" stroke-width="4"/>
  <rect x="15" y="15" width="220" height="320" rx="13" fill="none" stroke="#b42335" stroke-width="1.5" opacity=".22"/>
  
    <g >
      <text x="28" y="38" text-anchor="middle" font-family="Inter, Arial, sans-serif" font-size="30" font-weight="900" fill="#b42335">Q</text>
      <text x="28" y="66" text-anchor="middle" dominant-baseline="middle" font-family="Georgia, serif" font-size="27" font-weight="900" fill="#b42335" opacity="1">♦</text>
    </g>
  
    <g transform="rotate(180 125 175)">
      <text x="28" y="38" text-anchor="middle" font-family="Inter, Arial, sans-serif" font-size="30" font-weight="900" fill="#b42335">Q</text>
      <text x="28" y="66" text-anchor="middle" dominant-baseline="middle" font-family="Georgia, serif" font-size="27" font-weight="900" fill="#b42335" opacity="1">♦</text>
    </g>
  
  
    <g>
      <rect x="61" y="78" width="128" height="194" rx="18" fill="#fde8ec" stroke="#b42335" stroke-width="4"/>
      <path d="M 92 107 L 109 81 L 125 106 L 141 81 L 158 107 Z" fill="#f4c95d" stroke="#17211f" stroke-width="3"/><circle cx="109" cy="81" r="4" fill="#b42335"/><circle cx="141" cy="81" r="4" fill="#b42335"/>
      
    <g transform="translate(125 163) scale(1)">
      <path d="M -46 -22 L -26 -64 L -10 -30 Z" fill="#d89038" stroke="#17211f" stroke-width="3" stroke-linejoin="round"/>
      <path d="M 46 -22 L 26 -64 L 10 -30 Z" fill="#d89038" stroke="#17211f" stroke-width="3" stroke-linejoin="round"/>
      <path d="M -36 -22 q 0 -42 36 -42 t 36 42 q 8 14 2 36 q -7 33 -38 36 q -31 -3 -38 -36 q -6 -22 2 -36z" fill="#e3a146" stroke="#17211f" stroke-width="3"/>
      <path d="M -22 -19 q 22 10 44 0 q -2 43 -22 52 q -20 -9 -22 -52z" fill="#fff6e8"/>
      <ellipse cx="-17" cy="-17" rx="5" ry="7" fill="#17211f"/>
      <ellipse cx="17" cy="-17" rx="5" ry="7" fill="#17211f"/>
      <path d="M -7 4 q 7 -7 14 0 q -4 8 -14 0z" fill="#17211f"/>
      <path d="M 0 12 q -10 13 -22 5" fill="none" stroke="#17211f" stroke-width="3" stroke-linecap="round"/>
      <path d="M 0 12 q 10 13 22 5" fill="none" stroke="#17211f" stroke-width="3" stroke-linecap="round"/>
      <path d="M 117 194 q 8 14 16 0" fill="#e86f7a" stroke="#17211f" stroke-width="2" stroke-linecap="round"/>
      <circle cx="-29" cy="2" r="6" fill="#f3b283" opacity=".72"/>
      <circle cx="29" cy="2" r="6" fill="#f3b283" opacity=".72"/>
    </g>
      <text x="125" y="304" text-anchor="middle" font-family="Inter, Arial, sans-serif" font-size="16" font-weight="900" fill="#b42335">Duchess ♦</text>
    </g>
</svg>
