<svg xmlns="http://www.w3.org/2000/svg" viewBox="0 0 160 220" role="img" aria-labelledby="title desc">
  <title id="title">La Mano Loteria card</title>
  <desc id="desc">A stylized hand card for the Las Jaras Laundry Room.</desc>
  <rect width="160" height="220" rx="10" fill="#fff8e7"/>
  <rect x="10" y="10" width="140" height="200" rx="6" fill="#fdfcf7" stroke="#18201d" stroke-width="3"/>
  <text x="80" y="31" text-anchor="middle" font-family="Georgia,serif" font-size="15" font-weight="700" fill="#00327a">LA MANO</text>
  <path d="M62 141V79c0-8 11-8 11 0v34-48c0-8 12-8 12 0v48-43c0-8 12-8 12 0v47-31c0-8 12-8 12 0v58c0 23-16 36-35 36-22 0-39-16-43-37l-5-27c-2-9 10-12 14-4l13 26c2 4 5 5 9 3z" fill="#f59e0b" stroke="#18201d" stroke-width="4" stroke-linejoin="round"/>
  <path d="M55 150c15 5 31 4 47-2" fill="none" stroke="#fff8e7" stroke-width="4" stroke-linecap="round"/>
  <text x="80" y="194" text-anchor="middle" font-family="Arial,sans-serif" font-size="11" font-weight="700" fill="#5f6a65">LAUNDRY</text>
</svg>
